<?xml version="1.0" encoding="UTF-8" standalone="no"?>
<!DOCTYPE svg PUBLIC "-//W3C//DTD SVG 1.1//EN" "http://www.w3.org/Graphics/SVG/1.1/DTD/svg11.dtd">
<svg width="100%" height="100%" viewBox="0 0 568 424" version="1.1" xmlns="http://www.w3.org/2000/svg" xmlns:xlink="http://www.w3.org/1999/xlink" xml:space="preserve" xmlns:serif="http://www.serif.com/" style="fill-rule:evenodd;clip-rule:evenodd;stroke-linejoin:round;stroke-miterlimit:2;">
    <g transform="matrix(1,0,0,1,-5.68434e-14,-476.597)">
        <g id="Export" transform="matrix(0.709375,0,0,0.7065,5.68434e-14,476.597)">
            <rect x="0" y="0" width="800" height="600" style="fill:none;"/>
            <clipPath id="_clip1">
                <rect x="0" y="0" width="800" height="600"/>
            </clipPath>
            <g clip-path="url(#_clip1)">
                <g id="DarkBck">
                    <g transform="matrix(1.40969,0,0,1.41543,-222.605,-81.6968)">
                        <ellipse cx="441.66" cy="261.517" rx="145.19" ry="203.646" style="fill:white;"/>
                    </g>
                    <g transform="matrix(1.83525,0,0,1.84272,-334.101,-364.572)">
                        <g transform="matrix(6.12323e-17,-1,1,6.12323e-17,-180.358,674.98)">
                            <path d="M242.683,362.405C192.29,362.405 151.377,437.801 151.377,530.668C151.377,623.535 192.29,698.931 242.683,698.931C227.565,659.67 215.291,597.79 215.291,530.668C215.291,463.546 227.565,401.666 242.683,362.405Z" style="fill:url(#_Linear2);"/>
                        </g>
                        <g transform="matrix(6.12323e-17,-1,1,6.12323e-17,-80.9781,674.98)">
                            <path d="M242.683,362.405C192.29,362.405 151.377,437.801 151.377,530.668C151.377,623.535 192.29,698.931 242.683,698.931C227.565,659.67 215.291,597.79 215.291,530.668C215.291,463.546 227.565,401.666 242.683,362.405Z" style="fill:url(#_Linear3);"/>
                        </g>
                        <g transform="matrix(0.143201,-0.989694,0.989694,0.143201,-181.291,568.88)">
                            <path d="M242.683,362.405C192.29,362.405 151.377,437.801 151.377,530.668C151.377,623.535 192.29,698.931 242.683,698.931C227.565,659.67 215.291,597.79 215.291,530.668C215.291,463.546 227.565,401.666 242.683,362.405Z" style="fill:url(#_Linear4);"/>
                        </g>
                        <g transform="matrix(-0.143201,-0.989694,-0.989694,0.143201,981.291,568.88)">
                            <path d="M242.683,362.405C192.29,362.405 151.377,437.801 151.377,530.668C151.377,623.535 192.29,698.931 242.683,698.931C227.565,659.67 215.291,597.79 215.291,530.668C215.291,463.546 227.565,401.666 242.683,362.405Z" style="fill:url(#_Linear5);"/>
                        </g>
                    </g>
                </g>
            </g>
        </g>
    </g>
    <defs>
        <linearGradient id="_Linear2" x1="0" y1="0" x2="1" y2="0" gradientUnits="userSpaceOnUse" gradientTransform="matrix(91.3065,-217.953,116.687,48.8834,151.377,580.358)"><stop offset="0" style="stop-color:rgb(34,193,195);stop-opacity:1"/><stop offset="1" style="stop-color:rgb(253,187,45);stop-opacity:1"/></linearGradient>
        <linearGradient id="_Linear3" x1="0" y1="0" x2="1" y2="0" gradientUnits="userSpaceOnUse" gradientTransform="matrix(91.3065,217.953,-116.687,48.8834,151.377,480.978)"><stop offset="0" style="stop-color:rgb(34,193,195);stop-opacity:1"/><stop offset="1" style="stop-color:rgb(253,187,45);stop-opacity:1"/></linearGradient>
        <linearGradient id="_Linear4" x1="0" y1="0" x2="1" y2="0" gradientUnits="userSpaceOnUse" gradientTransform="matrix(114.558,-206.926,110.783,61.3316,128.051,568.816)"><stop offset="0" style="stop-color:rgb(34,193,195);stop-opacity:1"/><stop offset="1" style="stop-color:rgb(253,187,45);stop-opacity:1"/></linearGradient>
        <linearGradient id="_Linear5" x1="0" y1="0" x2="1" y2="0" gradientUnits="userSpaceOnUse" gradientTransform="matrix(-77.4938,-216.772,116.055,-41.4884,239.208,699.434)"><stop offset="0" style="stop-color:rgb(253,187,45);stop-opacity:1"/><stop offset="1" style="stop-color:rgb(34,193,195);stop-opacity:1"/></linearGradient>
    </defs>
</svg>
